<?xml version="1.0" encoding="utf-8"?>
<!-- Generator: Adobe Illustrator 18.1.1, SVG Export Plug-In . SVG Version: 6.00 Build 0)  -->
<svg version="1.1" id="Layer_1" xmlns="http://www.w3.org/2000/svg" xmlns:xlink="http://www.w3.org/1999/xlink" x="0px" y="0px"
	 viewBox="0 0 275 320" enable-background="new 0 0 275 320" xml:space="preserve">
<g>
	<g>
		<path fill="#FFFFFF" d="M271.8,194.2c-0.3-0.3-0.6-0.5-1-0.5H4.2c-0.4,0-0.8,0.2-1,0.5c-0.3,0.3-0.4,0.7-0.3,1.1
			c0,0.2,4.1,24.6,35.3,24.6h198.7c31.2,0,35.2-24.3,35.3-24.6C272.2,194.9,272,194.5,271.8,194.2z M157.5,211.3h-40.1v-9.1h40.1
			V211.3z"/>
		<path fill="#FFFFFF" d="M31.9,189.4h211.1c3.1,0,5.5-2.4,5.5-5.5V56.2c0-3-2.5-5.5-5.5-5.5H31.9c-3.1,0-5.5,2.4-5.5,5.5V184
			C26.4,187,28.9,189.4,31.9,189.4z M45.8,69.8h183.5v100.6H45.8C45.8,170.4,45.8,69.8,45.8,69.8z"/>
	</g>
</g>
<g id="Ouro_Heart">
	<rect x="140.1" y="163.8" fill="#D41F26" width="0.6" height="0.3"/>
	<rect x="139.8" y="163.5" fill="#EF4634" width="1.2" height="0.3"/>
	<rect x="139.5" y="163.1" fill="#F89E78" width="1.7" height="0.5"/>
	<rect x="139.3" y="162.7" fill="#EF3A35" width="2.1" height="0.3"/>
	<rect x="139.1" y="162.4" fill="#CC2027" width="2.7" height="0.3"/>
	<rect x="138.7" y="162.2" fill="#EF3B24" width="3.4" height="0.2"/>
	<rect x="138.5" y="162.1" fill="#F36F4F" width="3.8" height="0.2"/>
	<rect x="138.2" y="161.9" fill="#F16144" width="4.3" height="0.2"/>
	<rect x="138" y="161.7" fill="#F15949" width="4.8" height="0.2"/>
	<rect x="137.7" y="161.3" fill="#F37C74" width="5.5" height="0.3"/>
	<rect x="137.3" y="161" fill="#F79B7D" width="6.2" height="0.4"/>
	<rect x="136.9" y="160.6" fill="#FABEB5" width="7" height="0.4"/>
	<rect x="136.7" y="160.3" fill="#F4857A" width="7.5" height="0.3"/>
	<rect x="136.5" y="160.1" fill="#F26822" width="7.8" height="0.2"/>
	<rect x="136.1" y="159.8" fill="#EF4023" width="8.6" height="0.4"/>
	<rect x="135.7" y="159.3" fill="#F68F6E" width="9.4" height="0.4"/>
	<rect x="135.3" y="159" fill="#EE3024" width="10.1" height="0.4"/>
	<rect x="135" y="158.6" fill="#EF4748" width="10.8" height="0.4"/>
	<rect x="134.6" y="158.2" fill="#EF3824" width="11.7" height="0.4"/>
	<rect x="134.2" y="157.8" fill="#D54D27" width="12.5" height="0.4"/>
	<rect x="133.8" y="157.4" fill="#D77527" width="13.3" height="0.4"/>
	<rect x="133.3" y="156.9" fill="#F47639" width="14.1" height="0.4"/>
	<rect x="132.8" y="156.5" fill="#F58C76" width="15.3" height="0.5"/>
	<rect x="132.3" y="156" fill="#FCCBAB" width="16.2" height="0.4"/>
	<rect x="131.8" y="155.6" fill="#FFEBDC" width="17.3" height="0.5"/>
	<rect x="131.2" y="155.1" fill="#F37652" width="18.4" height="0.5"/>
	<rect x="130.4" y="154.3" fill="#F15A36" width="20" height="0.7"/>
	<rect x="129.8" y="153.8" fill="#DF2426" width="21.2" height="0.5"/>
	<rect x="129.1" y="153.1" fill="#9C2E20" width="22.8" height="0.7"/>
	<rect x="127.7" y="151.9" fill="#BF4127" width="25.4" height="1.2"/>
	<rect x="126" y="150.3" fill="#F15F22" width="28.8" height="1.6"/>
	<rect x="124.7" y="149.1" fill="#FBBB87" width="31.6" height="1.2"/>
	<rect x="122.8" y="147.4" fill="#BD2025" width="35.1" height="1.7"/>
	<rect x="121.6" y="146.2" fill="#C53F27" width="37.8" height="1.2"/>
	<rect x="119.9" y="144.6" fill="#A52122" width="40.9" height="1.6"/>
	<rect x="118.4" y="143.1" fill="#C62026" width="44.2" height="1.5"/>
	<rect x="116.8" y="141.7" fill="#BD2025" width="47.4" height="1.5"/>
	<rect x="115.2" y="140" fill="#F78E42" width="50.6" height="1.6"/>
	<rect x="113.3" y="138.1" fill="#EE2A24" width="54.4" height="1.9"/>
	<rect x="111.7" y="136.4" fill="#CD2027" width="57.5" height="1.7"/>
	<rect x="110" y="134.7" fill="#BF2026" width="60.5" height="1.8"/>
	<rect x="107.8" y="132.2" fill="#EF4744" width="65.3" height="2.4"/>
	<rect x="106" y="130.2" fill="#B52625" width="68.9" height="2.1"/>
	<rect x="104.1" y="127.7" fill="#F79A87" width="72.5" height="2.4"/>
	<rect x="101.7" y="124.6" fill="#FDE5DF" width="77.5" height="3.2"/>
	<rect x="100.7" y="123" fill="#CC4627" width="79.5" height="1.5"/>
	<rect x="99.4" y="121" fill="#D03D27" width="82.1" height="2"/>
	<rect x="98.4" y="119.4" fill="#91281D" width="83.9" height="1.7"/>
	<rect x="97.5" y="117.6" fill="#E03D26" width="85.7" height="1.7"/>
	<rect x="96.7" y="115.9" fill="#BD2025" width="87.6" height="1.8"/>
	<rect x="95.9" y="113.9" fill="#C62026" width="89" height="2"/>
	<rect x="95.3" y="111.9" fill="#86241A" width="90.5" height="1.9"/>
	<rect x="94.6" y="109.7" fill="#F0484A" width="91.7" height="2.3"/>
	<rect x="94.2" y="107.5" fill="#BF2326" width="92.1" height="2.1"/>
	<rect x="93.9" y="105.1" fill="#9C2220" width="93" height="2.4"/>
	<rect x="93.9" y="102.7" fill="#961A1D" width="93.1" height="2.4"/>
	<rect x="93.9" y="100.9" fill="#F26928" width="93.1" height="1.8"/>
	<rect x="94.1" y="99.3" fill="#D55D27" width="92.9" height="1.6"/>
	<rect x="94.4" y="97.3" fill="#F37375" width="91.9" height="2"/>
	<rect x="94.6" y="96.1" fill="#CF2227" width="91.7" height="1.2"/>
	<rect x="94.6" y="94.4" fill="#EE3424" width="91.7" height="1.6"/>
	<rect x="95.3" y="93.4" fill="#A01D20" width="90.5" height="1.1"/>
	<rect x="95.9" y="92.2" fill="#ED2224" width="89.4" height="1.2"/>
	<rect x="96.4" y="91" fill="#D43427" width="88.5" height="1.2"/>
	<rect x="97.1" y="89.6" fill="#8E231C" width="87.2" height="1.4"/>
	<rect x="97.5" y="88.4" fill="#A92323" width="85.7" height="1.2"/>
	<rect x="98.1" y="87.3" fill="#991F1F" width="84.8" height="1.1"/>
	<rect x="98.9" y="86.3" fill="#D92526" width="83.3" height="1"/>
	<rect x="99.9" y="85.6" fill="#F15B22" width="40.5" height="0.9"/>
	<rect x="100.3" y="84.5" fill="#EF3D36" width="38.7" height="1.2"/>
	<rect x="101.2" y="83.5" fill="#F2632E" width="36.7" height="1"/>
	<rect x="102.4" y="82.4" fill="#B15726" width="34.3" height="1.1"/>
	<rect x="103.6" y="80.8" fill="#EF3F27" width="31.3" height="1.6"/>
	<rect x="106" y="79.6" fill="#F3713F" width="26.6" height="1.2"/>
	<rect x="107.2" y="78.6" fill="#EE3426" width="23.9" height="1"/>
	<rect x="110" y="77.2" fill="#F58120" width="18.3" height="1.4"/>
	<rect x="113.4" y="76.5" fill="#F68948" width="10.9" height="0.7"/>
	<rect x="140.8" y="85.1" fill="#EE302F" width="40.7" height="1.2"/>
	<rect x="141.7" y="84" fill="#D45327" width="38.5" height="1.1"/>
	<rect x="143.1" y="83" fill="#F37124" width="36.1" height="1.3"/>
	<rect x="144.3" y="82.2" fill="#EF4623" width="34" height="0.7"/>
	<rect x="144.9" y="81.6" fill="#AA1E22" width="32.6" height="0.6"/>
	<rect x="146.4" y="80.2" fill="#F47C2A" width="30.3" height="1.4"/>
	<rect x="147.8" y="79.4" fill="#A03321" width="26.8" height="0.8"/>
	<rect x="149.9" y="78.4" fill="#C54727" width="23.6" height="1"/>
	<rect x="152.1" y="77.2" fill="#B54B26" width="18.8" height="1.1"/>
	<rect x="155.7" y="76.5" fill="#EE3224" width="11.6" height="0.7"/>
</g>
<g>
	<path fill="#FFFFFF" d="M88.9,280.1h5c4.5,0,10.3,0.2,10.3,11.2v9.1c0,10.9-5.8,11.2-10.3,11.2h-5V280.1z M94.9,308.2
		c3.5,0,4.3-1.5,4.3-7.4V291c0-5.9-0.8-7.4-4.3-7.4h-1.2v24.6H94.9z"/>
	<path fill="#FFFFFF" d="M108.4,280.1h11.6v3.8h-6.9v9.4h5.3v3.8h-5.3v10.8h7.1v3.8h-11.8V280.1z"/>
	<path fill="#FFFFFF" d="M123,301.5h3.7v1.5c0,3.4,0.8,5.2,3.1,5.2c1.8,0,2.8-1,2.8-2.9c0-2-0.5-3.1-2.2-5.4l-5-5.9
		c-1.7-2.2-2.8-4.5-2.8-7.1c0-4.2,2.6-7.1,7.2-7.1c5.6,0,7.2,3.5,7.2,6.7c0,1.3-0.3,2.4-0.5,3.8h-3.7v-1.5c0-3.3-0.9-5.2-3.1-5.2
		c-1.8,0-2.7,1.1-2.7,2.7c0,1.8,0.6,2.7,1.5,3.9l5.5,6.7c2,2.6,3.1,4.9,3.1,7.6c0,4.5-2.9,7.3-7.5,7.3c-5.7,0-7.3-3.3-7.3-6.7
		C122.5,303.9,122.7,302.8,123,301.5z"/>
	<path fill="#FFFFFF" d="M141.3,280.1h4.8v31.4h-4.8V280.1z"/>
	<path fill="#FFFFFF" d="M150.8,301.3v-11.1c0-9.5,5.1-10.3,8.1-10.3c5.1,0,6.9,3,6.9,6.7c0,1.3-0.2,2.4-0.4,3.8h-3.8v-1.5
		c0-3.4-1-5.2-2.8-5.2c-2,0-2.9,1.3-2.9,5.3v14.2c0,3.9,0.9,5.1,2.9,5.1c2.1,0,3-2.3,3-5.4v-4.1h-2.4v-3.1h7.1v15.9h-3.2l-0.5-3
		c-1.2,2.3-2.7,3.3-4.8,3.3C155.6,311.9,150.8,310.8,150.8,301.3z"/>
	<path fill="#FFFFFF" d="M170.7,280.1h3.9l7.6,21h0.1c-0.2-2-0.5-4.7-0.5-9.6v-11.5h4.3v31.4h-3.9l-7.6-20.5h-0.1
		c0.2,2.2,0.5,4.9,0.5,11.2v9.2h-4.2V280.1z"/>
</g>
</svg>
