<?xml version="1.0" encoding="utf-8"?>
<!-- Generator: Adobe Illustrator 18.1.1, SVG Export Plug-In . SVG Version: 6.00 Build 0)  -->
<svg version="1.1" id="Capa_1" xmlns="http://www.w3.org/2000/svg" xmlns:xlink="http://www.w3.org/1999/xlink" x="0px" y="0px"
	 viewBox="-150 -84 300 300" enable-background="new -150 -84 300 300" xml:space="preserve">
<g>
	<g id="favorite">
		<path fill="#DC143C" d="M0,118.6l-7.4-7.4c-27.5-24.3-45.4-40.7-45.4-60.8c0-16.4,12.7-29.1,29.1-29.1c9,0,18,4.2,23.8,11.1
			c5.8-6.9,14.8-11.1,23.8-11.1c16.4,0,29.1,12.7,29.1,29.1c0,20.1-18,36.5-45.4,60.8L0,118.6z"/>
	</g>
</g>
<path fill="#FFFFFF" d="M67.1-54.4c-0.9-0.5-2-0.6-3.1-0.3c-1,0.3-1.9,1-2.4,1.9L44.1-21c-1.1,2-0.4,4.4,1.6,5.5
	C75.4,1,93.9,32.3,93.9,66.2c0,51.4-41.8,93.2-93.2,93.2s-93.2-41.8-93.2-93.2c0-19.3,6.1-38.3,17.3-54L-47.5,40
	c1.1,1.1,2.7,1.5,4.1,1c1.5-0.5,2.5-1.7,2.7-3.3l15.3-105c0.2-1.3-0.2-2.5-1.1-3.4c-0.9-0.9-2.2-1.3-3.4-1.1l-105,15.3
	c-1.5,0.2-2.8,1.3-3.2,2.7c-0.5,1.5-0.1,3,1,4.1l30.1,30.1c-19.4,24.3-30,54.6-30,85.8c0,75.9,61.8,137.7,137.7,137.7
	s137.7-61.8,137.7-137.7C138.3,16.1,111.1-30.1,67.1-54.4z"/>
</svg>
