<?xml version="1.0" encoding="utf-8"?>
<!-- Generator: Adobe Illustrator 18.1.1, SVG Export Plug-In . SVG Version: 6.00 Build 0)  -->
<svg version="1.1" id="Capa_1" xmlns="http://www.w3.org/2000/svg" xmlns:xlink="http://www.w3.org/1999/xlink" x="0px" y="0px"
	 viewBox="-248 -93 300 300" enable-background="new -248 -93 300 300" xml:space="preserve">
<g>
	<g>
		<path fill="#FFFFFF" d="M-132,13.6l-16.4-15.5c1.9-3.5,3.1-7.4,3.1-11.6c0-13.4-10.9-24.3-24.3-24.3c-13.4,0-24.3,10.9-24.3,24.3
			s10.9,24.3,24.3,24.3c4.7,0,9.1-1.4,12.9-3.8l16.4,15.5C-138,19.3-135.2,16.3-132,13.6z"/>
		<path fill="#FFFFFF" d="M-62.7,11.7L-40.9-25c2.1,0.6,4.4,1.1,6.7,1.1c13.5,0,24.3-10.9,24.3-24.3c0-13.4-10.9-24.3-24.3-24.3
			c-13.4,0-24.3,10.9-24.3,24.3c0,6.7,2.7,12.7,7,17.1L-73.2,5.4C-69.4,7.1-65.9,9.2-62.7,11.7z"/>
		<path fill="#FFFFFF" d="M12.5,42.4C2,42.4-6.8,49-10.3,58.3l-30.3-3c0,0.2,0,0.4,0,0.7c0,3.9-0.4,7.8-1.2,11.5l30.3,3
			C-9.6,82.1,0.4,91,12.5,91c13.4,0,24.3-10.9,24.3-24.3C36.8,53.3,25.9,42.4,12.5,42.4z"/>
		<path fill="#FFFFFF" d="M-71.1,138l-6.8-29.6c-3.8,1.3-7.8,2.3-11.9,2.8l6.8,29.6c-7.8,4.1-13.1,12.1-13.1,21.5
			c0,13.4,10.9,24.3,24.3,24.3c13.4,0,24.3-10.9,24.3-24.3C-47.5,149.1-58,138.4-71.1,138z"/>
		<path fill="#FFFFFF" d="M-150.5,67.7l-37.7,12.6c-4.3-6.6-11.8-11-20.4-11c-13.4,0-24.3,10.9-24.3,24.3
			c0,13.5,10.9,24.3,24.3,24.3c13.4,0,24.3-10.9,24.3-24.3c0-0.6-0.1-1.1-0.2-1.6l37.8-12.7C-148.2,75.7-149.6,71.8-150.5,67.7z"/>
	</g>
	<g>
		<g id="favorite">
			<path fill="#DC143C" d="M-90.9,98.6l-6.1-6.1c-22.8-20.2-37.7-33.8-37.7-50.4c0-13.6,10.5-24.1,24.1-24.1
				c7.5,0,14.9,3.5,19.7,9.2c4.8-5.7,12.3-9.2,19.7-9.2C-57.5,17.9-47,28.5-47,42c0,16.7-14.9,30.2-37.7,50.4L-90.9,98.6z"/>
		</g>
	</g>
</g>
</svg>
