<?xml version="1.0" encoding="utf-8"?>
<!-- Generator: Adobe Illustrator 18.1.1, SVG Export Plug-In . SVG Version: 6.00 Build 0)  -->
<svg version="1.1" id="Big_Idea" xmlns="http://www.w3.org/2000/svg" xmlns:xlink="http://www.w3.org/1999/xlink" x="0px" y="0px"
	 viewBox="-137.5 162.5 275 275" enable-background="new -137.5 162.5 275 275" xml:space="preserve">
<g id="Ideas">
	<g>
		<path fill="#FFFFFF" d="M-34,256.5l-16.4-15.5c1.9-3.5,3.1-7.4,3.1-11.6c0-13.4-10.9-24.3-24.3-24.3c-13.4,0-24.3,10.9-24.3,24.3
			s10.9,24.3,24.3,24.3c4.7,0,9.1-1.4,12.9-3.8l16.4,15.5C-40,262.2-37.2,259.2-34,256.5z"/>
		<path fill="#FFFFFF" d="M35.3,254.6l21.8-36.7c2.1,0.6,4.4,1.1,6.7,1.1c13.5,0,24.3-10.9,24.3-24.3s-10.9-24.3-24.3-24.3
			s-24.3,10.9-24.3,24.3c0,6.7,2.7,12.7,7,17.1l-21.7,36.5C28.6,250.1,32.1,252.1,35.3,254.6z"/>
		<path fill="#FFFFFF" d="M110.5,285.4c-10.5,0-19.3,6.6-22.8,15.9l-30.3-3c0,0.2,0,0.4,0,0.7c0,3.9-0.4,7.8-1.2,11.5l30.3,3
			c1.9,11.6,11.9,20.5,24,20.5c13.4,0,24.3-10.9,24.3-24.3S123.9,285.4,110.5,285.4z"/>
		<path fill="#FFFFFF" d="M26.9,381l-6.8-29.6c-3.8,1.3-7.8,2.3-11.9,2.8l6.8,29.6c-7.8,4.1-13.1,12.1-13.1,21.5
			c0,13.4,10.9,24.3,24.3,24.3s24.3-10.9,24.3-24.3C50.5,392,40,381.3,26.9,381z"/>
		<path fill="#FFFFFF" d="M-52.5,310.6l-37.7,12.6c-4.3-6.6-11.8-11-20.4-11c-13.4,0-24.3,10.9-24.3,24.3
			c0,13.5,10.9,24.3,24.3,24.3c13.4,0,24.3-10.9,24.3-24.3c0-0.6-0.1-1.1-0.2-1.6l37.8-12.7C-50.2,318.6-51.6,314.8-52.5,310.6z"/>
	</g>
</g>
<g id="Ouro_Heart">
	<rect x="-0.2" y="337.7" fill="#D31F26" width="0.5" height="0.3"/>
	<rect x="-0.5" y="337.4" fill="#EE4634" width="1.1" height="0.3"/>
	<rect x="-0.8" y="337" fill="#F79D78" width="1.5" height="0.4"/>
	<rect x="-1" y="336.7" fill="#EE3A35" width="1.9" height="0.3"/>
	<rect x="-1.2" y="336.5" fill="#CB2027" width="2.4" height="0.2"/>
	<rect x="-1.5" y="336.3" fill="#EE3B24" width="3" height="0.2"/>
	<rect x="-1.7" y="336.2" fill="#F26F4F" width="3.4" height="0.1"/>
	<rect x="-1.9" y="336" fill="#F06144" width="3.8" height="0.2"/>
	<rect x="-2.1" y="335.8" fill="#F05949" width="4.2" height="0.2"/>
	<rect x="-2.4" y="335.5" fill="#F27C74" width="4.9" height="0.3"/>
	<rect x="-2.8" y="335.2" fill="#F69A7D" width="5.5" height="0.3"/>
	<rect x="-3.1" y="334.9" fill="#F9BDB4" width="6.2" height="0.3"/>
	<rect x="-3.3" y="334.7" fill="#F3847A" width="6.6" height="0.2"/>
	<rect x="-3.5" y="334.5" fill="#F16822" width="6.9" height="0.2"/>
	<rect x="-3.8" y="334.1" fill="#EE4023" width="7.6" height="0.3"/>
	<rect x="-4.2" y="333.8" fill="#F58E6E" width="8.4" height="0.4"/>
	<rect x="-4.5" y="333.5" fill="#ED3024" width="9" height="0.3"/>
	<rect x="-4.8" y="333.1" fill="#EE4748" width="9.6" height="0.3"/>
	<rect x="-5.2" y="332.8" fill="#EE3824" width="10.4" height="0.4"/>
	<rect x="-5.5" y="332.4" fill="#D44D27" width="11.1" height="0.4"/>
	<rect x="-5.9" y="332.1" fill="#D67527" width="11.8" height="0.3"/>
	<rect x="-6.3" y="331.7" fill="#F37639" width="12.5" height="0.4"/>
	<rect x="-6.8" y="331.3" fill="#F48B76" width="13.6" height="0.4"/>
	<rect x="-7.2" y="330.9" fill="#FBCAAA" width="14.4" height="0.4"/>
	<rect x="-7.6" y="330.5" fill="#FFEADB" width="15.3" height="0.4"/>
	<rect x="-8.1" y="330.1" fill="#F27652" width="16.3" height="0.4"/>
	<rect x="-8.9" y="329.4" fill="#F05A36" width="17.7" height="0.6"/>
	<rect x="-9.4" y="329" fill="#DE2426" width="18.8" height="0.5"/>
	<rect x="-10" y="328.4" fill="#9B2E20" width="20.2" height="0.6"/>
	<rect x="-11.2" y="327.3" fill="#BE4127" width="22.5" height="1.1"/>
	<rect x="-12.8" y="326" fill="#F05F22" width="25.6" height="1.4"/>
	<rect x="-13.9" y="324.9" fill="#FABA86" width="28" height="1.1"/>
	<rect x="-15.6" y="323.4" fill="#BC2025" width="31.1" height="1.5"/>
	<rect x="-16.6" y="322.4" fill="#C43F27" width="33.5" height="1"/>
	<rect x="-18.2" y="321" fill="#A42122" width="36.3" height="1.4"/>
	<rect x="-19.5" y="319.8" fill="#C52026" width="39.2" height="1.3"/>
	<rect x="-20.9" y="318.5" fill="#BC2025" width="42" height="1.3"/>
	<rect x="-22.4" y="317.1" fill="#F68D42" width="44.8" height="1.4"/>
	<rect x="-24" y="315.4" fill="#ED2A24" width="48.2" height="1.6"/>
	<rect x="-25.5" y="313.9" fill="#CC2027" width="50.9" height="1.5"/>
	<rect x="-27" y="312.4" fill="#BE2026" width="53.6" height="1.5"/>
	<rect x="-28.9" y="310.3" fill="#EE4744" width="57.9" height="2.1"/>
	<rect x="-30.5" y="308.5" fill="#B42625" width="61" height="1.8"/>
	<rect x="-32.2" y="306.4" fill="#F69986" width="64.3" height="2.1"/>
	<rect x="-34.3" y="303.7" fill="#FCE4DE" width="68.7" height="2.7"/>
	<rect x="-35.2" y="302.3" fill="#CB4627" width="70.4" height="1.3"/>
	<rect x="-36.3" y="300.6" fill="#CF3D27" width="72.7" height="1.8"/>
	<rect x="-37.2" y="299.1" fill="#90281D" width="74.3" height="1.4"/>
	<rect x="-38" y="297.6" fill="#DF3D26" width="76" height="1.5"/>
	<rect x="-38.7" y="296.1" fill="#BC2025" width="77.6" height="1.5"/>
	<rect x="-39.4" y="294.4" fill="#C52026" width="78.8" height="1.7"/>
	<rect x="-40" y="292.7" fill="#85241A" width="80.2" height="1.7"/>
	<rect x="-40.5" y="290.8" fill="#EF484A" width="81.2" height="2"/>
	<rect x="-40.9" y="288.9" fill="#BE2326" width="81.6" height="1.8"/>
	<rect x="-41.2" y="286.8" fill="#9B2220" width="82.4" height="2.1"/>
	<rect x="-41.2" y="284.7" fill="#951A1D" width="82.5" height="2.1"/>
	<rect x="-41.2" y="283.2" fill="#F16928" width="82.5" height="1.6"/>
	<rect x="-41.1" y="281.7" fill="#D45D27" width="82.3" height="1.4"/>
	<rect x="-40.8" y="280" fill="#F27375" width="81.5" height="1.7"/>
	<rect x="-40.5" y="279" fill="#CE2227" width="81.2" height="1.1"/>
	<rect x="-40.5" y="277.6" fill="#ED3424" width="81.2" height="1.4"/>
	<rect x="-40" y="276.6" fill="#9F1D20" width="80.2" height="0.9"/>
	<rect x="-39.4" y="275.6" fill="#EC2224" width="79.2" height="1"/>
	<rect x="-39" y="274.6" fill="#D33427" width="78.4" height="1"/>
	<rect x="-38.3" y="273.4" fill="#8D231C" width="77.3" height="1.2"/>
	<rect x="-38" y="272.4" fill="#A82323" width="76" height="1"/>
	<rect x="-37.5" y="271.4" fill="#981F1F" width="75.2" height="1"/>
	<rect x="-36.8" y="270.5" fill="#D82526" width="73.9" height="0.9"/>
	<rect x="-35.9" y="269.9" fill="#F05B22" width="35.9" height="0.8"/>
	<rect x="-35.5" y="268.9" fill="#EE3D36" width="34.3" height="1"/>
	<rect x="-34.7" y="268.1" fill="#F1632E" width="32.5" height="0.8"/>
	<rect x="-33.7" y="267.1" fill="#B05726" width="30.4" height="1"/>
	<rect x="-32.6" y="265.7" fill="#EE3F27" width="27.7" height="1.4"/>
	<rect x="-30.5" y="264.7" fill="#F2713F" width="23.6" height="1"/>
	<rect x="-29.4" y="263.8" fill="#ED3426" width="21.2" height="0.9"/>
	<rect x="-27" y="262.6" fill="#F48020" width="16.2" height="1.2"/>
	<rect x="-23.9" y="262.1" fill="#F58848" width="9.7" height="0.6"/>
	<rect x="0.3" y="269.4" fill="#ED302F" width="36.1" height="1.1"/>
	<rect x="1.1" y="268.5" fill="#D35327" width="34.1" height="0.9"/>
	<rect x="2.4" y="267.6" fill="#F27124" width="32" height="1.1"/>
	<rect x="3.5" y="267" fill="#EE4623" width="30.1" height="0.6"/>
	<rect x="4" y="266.4" fill="#A91E22" width="28.9" height="0.5"/>
	<rect x="5.3" y="265.2" fill="#F37C2A" width="26.9" height="1.2"/>
	<rect x="6.6" y="264.5" fill="#9F3321" width="23.8" height="0.7"/>
	<rect x="8.4" y="263.6" fill="#C44727" width="20.9" height="0.9"/>
	<rect x="10.4" y="262.6" fill="#B44B26" width="16.7" height="1"/>
	<rect x="13.6" y="262.1" fill="#ED3224" width="10.3" height="0.6"/>
</g>
</svg>
