<?xml version="1.0" encoding="utf-8"?>
<!-- Generator: Adobe Illustrator 18.1.1, SVG Export Plug-In . SVG Version: 6.00 Build 0)  -->
<svg version="1.1" id="Capa_1" xmlns="http://www.w3.org/2000/svg" xmlns:xlink="http://www.w3.org/1999/xlink" x="0px" y="0px"
	 viewBox="-244 -89 300 300" enable-background="new -244 -89 300 300" xml:space="preserve">
<g>
	<g>
		<path fill="#FFFFFF" d="M-136-17.1c0,5.8,4.7,10.6,10.6,10.6v-21.1C-131.3-27.6-136-22.9-136-17.1z"/>
		<path fill="#FFFFFF" d="M-52-17.1c0-5.8-4.7-10.6-10.6-10.6v21.1C-56.7-6.5-52-11.2-52-17.1z"/>
		<path fill="#FFFFFF" d="M30.2-85.6h-248.3c-7.6,0-13.7,6.2-13.7,13.7v265.7c0,7.6,6.2,13.7,13.7,13.7H30.2
			c7.6,0,13.7-6.2,13.7-13.7V-71.8C43.9-79.4,37.7-85.6,30.2-85.6z M-136,183c0,3-2.5,5.5-5.5,5.5h-49.2c-3,0-5.5-2.5-5.5-5.5v-21.9
			c0-3,2.5-5.5,5.5-5.5h49.2c3,0,5.5,2.5,5.5,5.5V183z M-14.4,150.9h-17.8v-5.5h17.8V150.9z M11.6,150.9H-6.2v-5.5h17.8V150.9z
			 M27.4,137.3h-242.8V-29.7h93.8v61.6h18.7v11.2c0,1.6,0.5,3.1,1.2,4.4c-0.2,1.5-0.4,3-0.4,4.6c0,9.1,8.2,16.4,8.2,16.4
			s8.2-7.4,8.2-16.4c0-1.6-0.2-3.2-0.4-4.6c0.7-1.3,1.2-2.8,1.2-4.4V31.9h18.7v-61.6h93.6L27.4,137.3L27.4,137.3z M27.4-38.1h-93.6
			v-15.5h-55.4v15.5h-93.8v-31H27.4V-38.1z"/>
	</g>
</g>
<g>
	<g id="favorite">
		<path fill="#DC143C" d="M-94,134.1l-5.1-5.1c-19.1-16.9-31.5-28.2-31.5-42.2c0-11.4,8.8-20.2,20.2-20.2c6.2,0,12.5,2.9,16.5,7.7
			c4-4.8,10.3-7.7,16.5-7.7c11.4,0,20.2,8.8,20.2,20.2c0,13.9-12.5,25.3-31.5,42.2L-94,134.1z"/>
	</g>
</g>
</svg>
