<?xml version="1.0" encoding="utf-8"?>
<!-- Generator: Adobe Illustrator 18.1.1, SVG Export Plug-In . SVG Version: 6.00 Build 0)  -->
<svg version="1.1" id="Capa_1" xmlns="http://www.w3.org/2000/svg" xmlns:xlink="http://www.w3.org/1999/xlink" x="0px" y="0px"
	 viewBox="-66 89 300 300" enable-background="new -66 89 300 300" xml:space="preserve">
<g>
	<g id="favorite">
		<path fill="#DC143C" d="M84,351.6l-17.1-17.1C3.2,278.2-38.4,240.2-38.4,193.7c0-37.9,29.4-67.3,67.3-67.3
			c20.8,0,41.6,9.8,55.1,25.7c13.5-15.9,34.3-25.7,55.1-25.7c37.9,0,67.3,29.4,67.3,67.3c0,46.5-41.6,84.5-105.3,140.8L84,351.6z"/>
	</g>
</g>
<g>
	<g>
		<g>
			<path fill="#FFFFFF" d="M223.1,89h-84.7c-6,0-10.9,5.2-10.9,11.6v5c0,6.4,4.9,11.6,10.9,11.6h69.1v73.8c0,6.4,4.9,11.6,10.9,11.6
				h4.7c6,0,10.9-5.2,10.9-11.6v-90.5C234,94.2,229.1,89,223.1,89z"/>
			<path fill="#FFFFFF" d="M29.6,89h-84.7c-6,0-10.9,5.2-10.9,11.6v90.5c0,6.4,4.9,11.6,10.9,11.6h4.7c6,0,10.9-5.2,10.9-11.6v-73.8
				h69.1c6,0,10.9-5.2,10.9-11.6v-5C40.5,94.2,35.6,89,29.6,89z"/>
			<path fill="#FFFFFF" d="M29.6,360.7h-69.1v-73.8c0-6.4-4.9-11.6-10.9-11.6h-4.7c-6,0-10.9,5.2-10.9,11.6v90.5
				c0,6.4,4.9,11.6,10.9,11.6h84.7c6,0,10.9-5.2,10.9-11.6v-5C40.5,365.9,35.6,360.7,29.6,360.7z"/>
			<path fill="#FFFFFF" d="M223.1,275.2h-4.7c-6,0-10.9,5.2-10.9,11.6v73.8h-69.1c-6,0-10.9,5.2-10.9,11.6v5
				c0,6.4,4.9,11.6,10.9,11.6h84.7c6,0,10.9-5.2,10.9-11.6v-90.5C234,280.5,229.1,275.2,223.1,275.2z"/>
			<path fill="#FFFFFF" d="M113.1,224.9H97.2v-16.9c0-6.4-4.9-11.6-10.9-11.6h-4.7c-6,0-10.9,5.2-10.9,11.6v16.9H54.9
				c-6,0-10.9,5.2-10.9,11.6v5c0,6.4,4.9,11.6,10.9,11.6h15.8v16.9c0,6.4,4.9,11.6,10.9,11.6h4.7c6,0,10.9-5.2,10.9-11.6v-16.9h15.8
				c6,0,10.9-5.2,10.9-11.6v-5C124,230.1,119.1,224.9,113.1,224.9z"/>
		</g>
	</g>
</g>
</svg>
