<?xml version="1.0" encoding="utf-8"?>
<!-- Generator: Adobe Illustrator 18.1.1, SVG Export Plug-In . SVG Version: 6.00 Build 0)  -->
<svg version="1.1" id="Printer" xmlns="http://www.w3.org/2000/svg" xmlns:xlink="http://www.w3.org/1999/xlink" x="0px" y="0px"
	 viewBox="-137.5 162.5 275 320" enable-background="new -137.5 162.5 275 320" xml:space="preserve">
<g id="Printer_1_">
	<g>
		<path fill="#FFFFFF" d="M-40.7,228.9c0,5.3,4.5,9.7,10.3,9.7v-19.2C-36.1,219.4-40.7,223.7-40.7,228.9z"/>
		<path fill="#FFFFFF" d="M40.6,228.9c0-5.3-4.5-9.7-10.3-9.7v19.2C36,238.6,40.6,234.3,40.6,228.9z"/>
		<path fill="#FFFFFF" d="M120.1,166.6h-240.2c-7.4,0-13.3,5.6-13.3,12.5V421c0,6.9,6,12.5,13.3,12.5h240.2
			c7.4,0,13.3-5.6,13.3-12.5V179.1C133.3,172.2,127.3,166.6,120.1,166.6z M-40.7,411.1c0,2.7-2.4,5-5.3,5h-47.6
			c-2.9,0-5.3-2.3-5.3-5v-19.9c0-2.7,2.4-5,5.3-5H-46c2.9,0,5.3,2.3,5.3,5V411.1z M76.9,381.9H59.7v-5h17.2
			C76.9,376.9,76.9,381.9,76.9,381.9z M102.1,381.9H84.9v-5h17.2C102.1,376.9,102.1,381.9,102.1,381.9z M117.4,369.5h-234.8V217.5
			h90.7v56.1h18.1v10.2c0,1.5,0.5,2.8,1.2,4c-0.2,1.4-0.4,2.7-0.4,4.2c0,8.3,7.9,14.9,7.9,14.9S8,300.1,8,291.9
			c0-1.5-0.2-2.9-0.4-4.2c0.7-1.2,1.2-2.5,1.2-4v-10.2h18.1v-56.1h90.5L117.4,369.5L117.4,369.5z M117.4,209.8H26.8v-14.1h-53.6
			v14.1h-90.7v-28.2h234.8V209.8z"/>
	</g>
</g>
<g id="Ouro_Heart">
	<rect x="-0.2" y="369.6" fill="#D31F26" width="0.4" height="0.2"/>
	<rect x="-0.4" y="369.4" fill="#EE4634" width="0.9" height="0.2"/>
	<rect x="-0.7" y="369" fill="#F79D78" width="1.3" height="0.3"/>
	<rect x="-0.8" y="368.8" fill="#EE3A35" width="1.6" height="0.3"/>
	<rect x="-1" y="368.6" fill="#CB2027" width="2" height="0.2"/>
	<rect x="-1.2" y="368.4" fill="#EE3B24" width="2.5" height="0.1"/>
	<rect x="-1.4" y="368.3" fill="#F26F4F" width="2.8" height="0.1"/>
	<rect x="-1.6" y="368.2" fill="#F06144" width="3.2" height="0.1"/>
	<rect x="-1.8" y="368" fill="#F05949" width="3.6" height="0.1"/>
	<rect x="-2" y="367.8" fill="#F27C74" width="4.1" height="0.3"/>
	<rect x="-2.3" y="367.5" fill="#F69A7D" width="4.6" height="0.3"/>
	<rect x="-2.6" y="367.2" fill="#F9BDB4" width="5.2" height="0.3"/>
	<rect x="-2.8" y="367.1" fill="#F3847A" width="5.5" height="0.2"/>
	<rect x="-2.9" y="366.9" fill="#F16822" width="5.8" height="0.1"/>
	<rect x="-3.2" y="366.6" fill="#EE4023" width="6.4" height="0.3"/>
	<rect x="-3.5" y="366.3" fill="#F58E6E" width="7" height="0.3"/>
	<rect x="-3.8" y="366.1" fill="#ED3024" width="7.5" height="0.3"/>
	<rect x="-4" y="365.8" fill="#EE4748" width="8" height="0.3"/>
	<rect x="-4.3" y="365.5" fill="#EE3824" width="8.7" height="0.3"/>
	<rect x="-4.6" y="365.2" fill="#D44D27" width="9.3" height="0.3"/>
	<rect x="-4.9" y="364.9" fill="#D67527" width="9.8" height="0.3"/>
	<rect x="-5.3" y="364.6" fill="#F37639" width="10.5" height="0.3"/>
	<rect x="-5.7" y="364.3" fill="#F48B76" width="11.4" height="0.3"/>
	<rect x="-6" y="363.9" fill="#FBCAAA" width="12" height="0.3"/>
	<rect x="-6.4" y="363.6" fill="#FFEADB" width="12.8" height="0.3"/>
	<rect x="-6.8" y="363.2" fill="#F27652" width="13.6" height="0.4"/>
	<rect x="-7.4" y="362.7" fill="#F05A36" width="14.8" height="0.5"/>
	<rect x="-7.9" y="362.3" fill="#DE2426" width="15.7" height="0.4"/>
	<rect x="-8.4" y="361.8" fill="#9B2E20" width="16.9" height="0.5"/>
	<rect x="-9.4" y="360.9" fill="#BE4127" width="18.8" height="0.9"/>
	<rect x="-10.7" y="359.8" fill="#F05F22" width="21.4" height="1.1"/>
	<rect x="-11.7" y="358.9" fill="#FABA86" width="23.4" height="0.9"/>
	<rect x="-13" y="357.7" fill="#BC2025" width="26" height="1.2"/>
	<rect x="-13.9" y="356.8" fill="#C43F27" width="28" height="0.8"/>
	<rect x="-15.2" y="355.7" fill="#A42122" width="30.3" height="1.2"/>
	<rect x="-16.3" y="354.6" fill="#C52026" width="32.8" height="1.1"/>
	<rect x="-17.5" y="353.5" fill="#BC2025" width="35.1" height="1.1"/>
	<rect x="-18.7" y="352.4" fill="#F68D42" width="37.5" height="1.2"/>
	<rect x="-20.1" y="351" fill="#ED2A24" width="40.3" height="1.4"/>
	<rect x="-21.3" y="349.7" fill="#CC2027" width="42.6" height="1.2"/>
	<rect x="-22.5" y="348.5" fill="#BE2026" width="44.9" height="1.3"/>
	<rect x="-24.2" y="346.7" fill="#EE4744" width="48.4" height="1.8"/>
	<rect x="-25.5" y="345.2" fill="#B42625" width="51" height="1.5"/>
	<rect x="-26.9" y="343.4" fill="#F69986" width="53.8" height="1.8"/>
	<rect x="-28.7" y="341.1" fill="#FCE4DE" width="57.4" height="2.3"/>
	<rect x="-29.4" y="340" fill="#CB4627" width="58.9" height="1.1"/>
	<rect x="-30.4" y="338.6" fill="#CF3D27" width="60.8" height="1.5"/>
	<rect x="-31.1" y="337.4" fill="#90281D" width="62.2" height="1.2"/>
	<rect x="-31.8" y="336.1" fill="#DF3D26" width="63.5" height="1.2"/>
	<rect x="-32.4" y="334.8" fill="#BC2025" width="64.9" height="1.3"/>
	<rect x="-33" y="333.4" fill="#C52026" width="65.9" height="1.4"/>
	<rect x="-33.5" y="332" fill="#85241A" width="67.1" height="1.4"/>
	<rect x="-33.9" y="330.4" fill="#EF484A" width="67.9" height="1.6"/>
	<rect x="-34.2" y="328.8" fill="#BE2326" width="68.2" height="1.5"/>
	<rect x="-34.4" y="327" fill="#9B2220" width="68.9" height="1.8"/>
	<rect x="-34.5" y="325.3" fill="#951A1D" width="69" height="1.7"/>
	<rect x="-34.5" y="324" fill="#F16928" width="69" height="1.3"/>
	<rect x="-34.3" y="322.8" fill="#D45D27" width="68.8" height="1.2"/>
	<rect x="-34.1" y="321.4" fill="#F27375" width="68.1" height="1.4"/>
	<rect x="-33.9" y="320.5" fill="#CE2227" width="67.9" height="0.9"/>
	<rect x="-33.9" y="319.3" fill="#ED3424" width="67.9" height="1.2"/>
	<rect x="-33.5" y="318.5" fill="#9F1D20" width="67" height="0.8"/>
	<rect x="-33" y="317.7" fill="#EC2224" width="66.3" height="0.8"/>
	<rect x="-32.6" y="316.8" fill="#D33427" width="65.6" height="0.8"/>
	<rect x="-32.1" y="315.8" fill="#8D231C" width="64.6" height="1"/>
	<rect x="-31.8" y="315" fill="#A82323" width="63.5" height="0.9"/>
	<rect x="-31.3" y="314.2" fill="#981F1F" width="62.9" height="0.8"/>
	<rect x="-30.8" y="313.4" fill="#D82526" width="61.8" height="0.8"/>
	<rect x="-30" y="312.9" fill="#F05B22" width="30" height="0.7"/>
	<rect x="-29.7" y="312.1" fill="#EE3D36" width="28.7" height="0.8"/>
	<rect x="-29" y="311.4" fill="#F1632E" width="27.2" height="0.7"/>
	<rect x="-28.2" y="310.6" fill="#B05726" width="25.4" height="0.8"/>
	<rect x="-27.2" y="309.4" fill="#EE3F27" width="23.2" height="1.2"/>
	<rect x="-25.5" y="308.6" fill="#F2713F" width="19.7" height="0.8"/>
	<rect x="-24.6" y="307.8" fill="#ED3426" width="17.7" height="0.8"/>
	<rect x="-22.5" y="306.8" fill="#F48020" width="13.6" height="1"/>
	<rect x="-20" y="306.4" fill="#F58848" width="8.1" height="0.5"/>
	<rect x="0.3" y="312.5" fill="#ED302F" width="30.2" height="0.9"/>
	<rect x="0.9" y="311.7" fill="#D35327" width="28.5" height="0.8"/>
	<rect x="2" y="311" fill="#F27124" width="26.7" height="0.9"/>
	<rect x="2.9" y="310.5" fill="#EE4623" width="25.2" height="0.5"/>
	<rect x="3.3" y="310" fill="#A91E22" width="24.1" height="0.4"/>
	<rect x="4.4" y="309" fill="#F37C2A" width="22.5" height="1"/>
	<rect x="5.5" y="308.4" fill="#9F3321" width="19.9" height="0.6"/>
	<rect x="7" y="307.7" fill="#C44727" width="17.5" height="0.7"/>
	<rect x="8.7" y="306.8" fill="#B44B26" width="14" height="0.8"/>
	<rect x="11.3" y="306.4" fill="#ED3224" width="8.6" height="0.5"/>
</g>
<g>
	<path fill="#FFFFFF" d="M-25.4,457.8c-1.4,5.8-5.7,6.5-8.7,6.5h-0.5v9.6h-4.8v-31.4h4.8c3.6,0,9.7,0.5,9.7,9.7v1.1
		C-25,455.1-25.1,456.6-25.4,457.8 M-34.4,460.8c3.5,0,4.6-1.9,4.6-6.6v-2.8c0-3.7-1-5.4-4.6-5.4h-0.2v14.9H-34.4z"/>
	<path fill="#FFFFFF" d="M-21.3,442.4h5.2c3.6,0,9.5,0.4,9.5,9v0.8c0,4.8-1.4,7.8-4.1,9.1l5,12.6h-5l-4.2-11.8h-1.8v11.8h-4.7V442.4
		z M-15.9,458.6c3.3,0,4.5-1.4,4.5-5.6v-2.5c0-3.2-1-4.7-4.5-4.7h-0.7v12.8H-15.9z"/>
	<path fill="#FFFFFF" d="M-2,442.4h4.8v31.4H-2V442.4z"/>
	<path fill="#FFFFFF" d="M8.1,442.4H12l7.6,21h0.1c-0.2-2-0.5-4.7-0.5-9.6v-11.5h4.3v31.4h-3.9L12,453.4h-0.1
		c0.2,2.2,0.5,4.9,0.5,11.2v9.2H8.1V442.4z"/>
	<path fill="#FFFFFF" d="M31.8,446.2h-5.1v-3.8h14.9v3.8h-5v27.7h-4.8V446.2z"/>
</g>
</svg>
