<?xml version="1.0" encoding="utf-8"?>
<!-- Generator: Adobe Illustrator 18.0.0, SVG Export Plug-In . SVG Version: 6.00 Build 0)  -->
<!DOCTYPE svg PUBLIC "-//W3C//DTD SVG 1.1//EN" "http://www.w3.org/Graphics/SVG/1.1/DTD/svg11.dtd">
<svg version="1.1" id="Layer_1" xmlns="http://www.w3.org/2000/svg" xmlns:xlink="http://www.w3.org/1999/xlink" x="0px" y="0px"
	 viewBox="0 0 5000 5000" enable-background="new 0 0 5000 5000" xml:space="preserve">
<path fill-rule="evenodd" clip-rule="evenodd" fill="#669C5F" d="M2499.9,600.1l362.1-150l1556,644.5l582,1405l-150.3,362.7
	l-645.3-1556.2L2499.9,600.1z"/>
<path fill-rule="evenodd" clip-rule="evenodd" fill="#BADEBC" d="M3842.3,1156.8l362.1,150l644.5,1555.9l-582,1405l-362.7,150.2
	l644.1-1556.7L3842.3,1156.8z"/>
<path fill-rule="evenodd" clip-rule="evenodd" fill="#669C5F" d="M4400.2,2498.6l150,362.1l-644.5,1555.9l-1405.1,582l-362.7-150.2
	l1556.3-645.3L4400.2,2498.6z"/>
<path fill-rule="evenodd" clip-rule="evenodd" fill="#BADEBC" d="M3843.5,3843l-150,362.1l-1556,644.5l-1405-582l-150.3-362.7
	L2139,4549L3843.5,3843z"/>
<path fill-rule="evenodd" clip-rule="evenodd" fill="#669C5F" d="M2500.1,4400.2l-362.1,150l-1556-644.5L0,2500.7L150.2,2138
	l645.3,1556.2L2500.1,4400.2z"/>
<path fill-rule="evenodd" clip-rule="evenodd" fill="#BADEBC" d="M1155.9,3842.3l-362.1-150L149.2,2136.4l582-1405L1094,581.2
	L449.8,2137.9L1155.9,3842.3z"/>
<path fill-rule="evenodd" clip-rule="evenodd" fill="#669C5F" d="M599.7,2500.3l-150-362.1l644.5-1555.9l1405.1-582L2862,150.5
	L1305.7,795.8L599.7,2500.3z"/>
<path fill-rule="evenodd" clip-rule="evenodd" fill="#BADEBC" d="M1156.5,1155.5l150-362.1l1556-644.5l1405,582l150.2,362.7
	L2861,449.5L1156.5,1155.5z"/>
</svg>
