<?xml version="1.0" encoding="utf-8"?>
<!-- Generator: Adobe Illustrator 18.1.1, SVG Export Plug-In . SVG Version: 6.00 Build 0)  -->
<svg version="1.1" id="Layer_1" xmlns="http://www.w3.org/2000/svg" xmlns:xlink="http://www.w3.org/1999/xlink" x="0px" y="0px"
	 viewBox="0 0 600 300" enable-background="new 0 0 600 300" xml:space="preserve">
<g>
	<g>
		<path fill="#FFFFFF" d="M483.1,230c-2.5,1.1-5.1,1.8-7.8,2.2c2.8-1.7,5-4.4,6-7.6c-2.6,1.6-5.6,2.7-8.7,3.3c-2.5-2.7-6-4.3-10-4.3
			c-7.5,0-13.7,6.1-13.7,13.7c0,1.1,0.1,2.1,0.4,3.1c-11.4-0.6-21.4-6-28.2-14.3c-1.2,2-1.8,4.4-1.8,6.9c0,4.7,2.4,8.9,6.1,11.4
			c-2.2-0.1-4.3-0.7-6.2-1.7v0.2c0,6.6,4.7,12.1,11,13.4c-1.1,0.3-2.4,0.5-3.6,0.5c-0.9,0-1.7-0.1-2.6-0.3c1.7,5.4,6.8,9.4,12.8,9.5
			c-4.7,3.7-10.6,5.8-17,5.8c-1.1,0-2.2-0.1-3.3-0.2c6,3.9,13.2,6.1,20.9,6.1c25.1,0,38.9-20.8,38.9-38.9l0-1.8
			C479,235.2,481.3,232.8,483.1,230z"/>
	</g>
</g>
<g>
	<path fill="#FFFFFF" d="M424.9,50.9c0,6,4.9,10.9,10.9,10.9c6,0,10.9-4.9,10.9-10.9c0-6-4.9-10.9-10.9-10.9
		C429.8,40,424.9,44.9,424.9,50.9z M452.9,50.9c0,6,4.9,10.9,10.9,10.9s10.9-4.9,10.9-10.9c0-6-4.9-10.9-10.9-10.9
		S452.9,44.9,452.9,50.9z"/>
</g>
<g>
	<path id="Github__x28_alt_x29_" fill="#FFFFFF" d="M563.9,28.1c0.8,1.8,1.3,4.9,0.6,7.1c3.2,2.7,4.3,9.4,2.8,14.8
		c4.6,0.3,10-0.2,13.5,1.2c-3.3-0.4-7.8-1.3-12-1c-0.8,0.1-2,0-1.9,1.1c4.9,0.4,9.8,0.8,13.8,2.1c-4-0.7-8.8-1.6-13.8-1.8
		c-2,4-6.2,6-11.9,6.5c0.6,1.3,1.8,1.8,2.1,4c0.4,3.2-0.7,7.9,0.4,10c0.5,1,1.4,1,1.9,1.9c-1.4,1.7-4.9-0.2-5.2-1.9
		c-0.7-3,1-7.6-0.8-9.6c0.1,3.2-0.8,7.8,0.1,10.7c0.4,1.1,1.4,1.6,1.1,2.6c-6.5,0.7-3.8-8.4-4.8-13.7c-1,0.1-0.5,1.5-0.6,2.1
		c0,5.2,1.1,12.4-4.6,11.7c-0.2-1.1,0.8-1.5,1.1-2.5c1-2.9-0.2-7.3,0.3-10.8c-2.1,1.6,0.2,7.3-1.1,10.2c-0.8,1.7-3.2,2.4-5.1,1.6
		c0.2-1.2,1.5-1,2.1-2.2c0.8-1.6,0-3.9,0.3-6.3c-4,0.8-7.1-0.1-8.6-2.6c-0.7-1.1-0.8-2.4-1.7-3.4c-0.8-1-2.1-1.1-2.5-2.5
		c4.9-1.2,5.1,5.1,9.5,5.2c1.4,0,2.1-0.4,3.3-0.7c0.4-1.6,1.1-2.7,2.2-3.6c-5.5-0.8-10-2.5-12.1-6.6c-5,0.2-9.6,0.9-13.8,1.9
		c3.8-1.4,8.6-1.9,13.7-2.1c-0.3-1.8-2.9-1.3-4.6-1.2c-3,0.1-6.8,0.5-9.2,1c3.5-1.2,8.4-1.1,13.1-1.1c-1.4-4.5-0.9-11.7,2.2-14.4
		c-0.9-2.3-0.6-5.9,0.6-7.7c3.5,0.2,5.7,1.7,7.9,3.2c2.7-0.8,5.6-1.2,9.4-1c1.6,0.1,3.2,0.8,4.4,0.7c1.2-0.1,2.5-1.4,3.6-1.9
		C561,28.4,562.3,28.2,563.9,28.1z"/>
</g>
<g>
	<path fill="#FFFFFF" d="M355.9,234.7V223h-7.6c-0.2,0.4-0.3,0.9-0.3,1.5c-0.1,0.3-0.2,0.4-0.2,0.7c-0.8,4.3-3,7.4-6.9,9
		c-1.1,0.5-2.2,0.6-3.3,0.5v9.4h5.6c0.1,13.3,0.1,20.1,0.1,20.5c0,0.3,0,0.5,0,0.8c0.7,5.8,3.7,9.3,9.1,10.6
		c2.2,0.6,4.5,0.9,6.9,0.9c3-0.1,6-0.6,8.9-1.6v-11.1c-1.7,0.5-3.3,1-4.7,1.4c-2.7,0.8-4.9,0.3-6.8-1.5c-0.2-0.3-0.4-0.6-0.5-1
		c-0.3-1.4-0.4-2.9-0.4-4.3v-14.7h12v-9.5H355.9z"/>
</g>
<g>
	<path fill="#FFFFFF" d="M364.3,21.6l-7.4,0c-8.3,0-13.7,5.5-13.7,14v6.5h-7.4c-0.6,0-1.2,0.5-1.2,1.2v9.4c0,0.6,0.5,1.2,1.2,1.2
		h7.4v23.6c0,0.6,0.5,1.2,1.2,1.2h9.7c0.6,0,1.2-0.5,1.2-1.2V53.7h8.7c0.6,0,1.2-0.5,1.2-1.2l0-9.4c0-0.3-0.1-0.6-0.3-0.8
		c-0.2-0.2-0.5-0.3-0.8-0.3h-8.7v-5.5c0-2.6,0.6-4,4.1-4l5,0c0.6,0,1.2-0.5,1.2-1.2v-8.7C365.4,22.1,364.9,21.6,364.3,21.6z"/>
</g>
<g>
	<g>
		<path fill="#FFFFFF" d="M371.5,136.9c-1.5-11-12.5-16.6-24.2-15.3c-9.3,1-18.5,8.5-18.9,19.2c-0.2,6.5,1.6,11.4,7.8,12.8
			c2.7-4.8-0.9-5.8-1.4-9.3c-2.3-14.1,16.3-23.7,26-13.9c6.7,6.8,2.3,27.8-8.5,25.6c-10.4-2.1,5.1-18.8-3.2-22.1
			c-6.7-2.7-10.3,8.2-7.1,13.5c-1.9,9.2-5.9,18-4.3,29.6c5.3-3.8,7.1-11.2,8.5-18.9c2.7,1.6,4.1,3.3,7.5,3.6
			C366.2,162.8,373.2,149.3,371.5,136.9z"/>
	</g>
</g>
<g>
	<g>
		<path fill="#FFFFFF" d="M57.2,125.3h-12c-5.4,0-9.1,1.2-12.4,3.9c-2.6,2.3-4.2,5.6-4.2,8.8c0,5,3.8,10.3,10.9,10.3
			c0.7,0,1.4-0.1,2.1-0.1l-0.1,0.2c-0.3,0.7-0.6,1.3-0.6,2.3c0,2,0.9,3.2,1.9,4.3l0.1,0.1l-0.2,0c-2.9,0.2-8.4,0.6-12.3,3
			c-4.7,2.8-5.1,6.8-5.1,8c0,4.7,4.4,9.4,14.1,9.4c11.3,0,17.2-6.2,17.2-12.4c0-4.6-2.7-6.8-5.5-9.2l-2.4-1.9
			c-0.7-0.6-1.7-1.4-1.7-2.8c0-1.4,0.9-2.3,1.7-3.1l0.1-0.1c2.6-2,5.5-4.3,5.5-9.3c0-5-3.1-7.6-4.7-8.9h4c0,0,0.1,0,0.1,0l3.4-2.2
			c0.1-0.1,0.1-0.2,0.1-0.3C57.4,125.4,57.3,125.3,57.2,125.3z M42.6,172.9c-6.9,0-11.5-3.2-11.5-8c0-3.1,1.9-5.4,5.6-6.8
			c3-1,6.9-1.1,6.9-1.1c0.7,0,1,0,1.5,0.1c4.8,3.4,7.2,5.2,7.2,8.7C52.3,170.2,48.6,172.9,42.6,172.9z M42.6,146.5
			c-5.8,0-8.2-7.6-8.2-11.7c0-2.1,0.5-3.7,1.4-4.9c1.1-1.3,2.9-2.2,4.6-2.2c5.3,0,8.3,7.1,8.3,12.1c0,0.8,0,3.2-1.6,4.8
			C45.9,145.8,44.1,146.5,42.6,146.5z"/>
		<path fill="#FFFFFF" d="M74,148.8h-6.3v-6.3c0-0.1-0.1-0.3-0.3-0.3h-2.7c-0.1,0-0.3,0.1-0.3,0.3v6.3h-6.3c-0.1,0-0.3,0.1-0.3,0.3
			v2.8c0,0.1,0.1,0.3,0.3,0.3h6.3v6.3c0,0.1,0.1,0.3,0.3,0.3h2.7c0.1,0,0.3-0.1,0.3-0.3v-6.4H74c0.1,0,0.3-0.1,0.3-0.3v-2.8
			C74.3,149,74.2,148.8,74,148.8z"/>
	</g>
</g>
<g>
	<g>
		<path fill="#FFFFFF" d="M580.6,149.7c0-3.6-2.9-6.6-6.6-6.6c-1.7,0-3.3,0.7-4.5,1.9c-4.5-3-10.5-4.9-17.3-5.1l3.7-11.6l9.9,2.3
			c0,0,0,0.1,0,0.1c0,3,2.4,5.4,5.4,5.4c3,0,5.4-2.4,5.4-5.4c0-3-2.4-5.4-5.4-5.4c-2.3,0-4.2,1.4-5,3.4l-10.7-2.5
			c-0.5-0.1-0.9,0.2-1.1,0.6l-4.1,12.9c-7,0.1-13.4,2-18.1,5c-1.2-1.1-2.8-1.8-4.4-1.8c-3.6,0-6.6,2.9-6.6,6.6
			c0,2.3,1.3,4.5,3.3,5.7c-0.1,0.7-0.2,1.4-0.2,2.1c0,9.7,11.9,17.6,26.5,17.6c14.6,0,26.5-7.9,26.5-17.6c0-0.7-0.1-1.3-0.2-2
			C579.3,154.3,580.6,152.1,580.6,149.7z M571.2,127.2c1.9,0,3.5,1.6,3.5,3.5c0,2-1.6,3.5-3.5,3.5c-2,0-3.5-1.6-3.5-3.5
			C567.7,128.8,569.3,127.2,571.2,127.2z M523.1,149.7c0-2.6,2.1-4.7,4.7-4.7c1.1,0,2.1,0.4,2.9,1c-2.7,2.1-4.7,4.7-5.7,7.5
			C523.8,152.6,523.1,151.2,523.1,149.7z M550.8,173.2c-13.6,0-24.7-7.1-24.7-15.8c0-8.7,11.1-15.8,24.7-15.8
			c13.6,0,24.7,7.1,24.7,15.8C575.5,166.2,564.4,173.2,550.8,173.2z M576.7,153.6c-1-2.8-2.9-5.4-5.7-7.5c0.8-0.7,1.9-1.1,3-1.1
			c2.6,0,4.7,2.1,4.7,4.7C578.8,151.3,578,152.7,576.7,153.6z"/>
		<path fill="#FFFFFF" d="M545.9,154.2c0-2.2-1.8-3.9-3.9-3.9s-3.9,1.8-3.9,3.9c0,2.2,1.8,3.9,3.9,3.9
			C544.1,158.1,545.9,156.4,545.9,154.2z"/>
		<path fill="#FFFFFF" d="M560,150.3c-2.2,0-3.9,1.8-3.9,3.9c0,2.2,1.8,3.9,3.9,3.9c2.2,0,3.9-1.8,3.9-3.9
			C563.9,152,562.1,150.3,560,150.3z"/>
		<path fill="#FFFFFF" d="M559.1,164.5c-1.6,1.6-4.3,2.4-8.2,2.4c0,0,0,0,0,0c0,0,0,0,0,0c-3.9,0-6.5-0.8-8.2-2.4
			c-0.4-0.4-0.9-0.4-1.3,0c-0.4,0.4-0.4,0.9,0,1.3c2,2,5.1,2.9,9.5,2.9c0,0,0,0,0,0c0,0,0,0,0,0c4.4,0,7.5-1,9.5-2.9
			c0.4-0.4,0.4-0.9,0-1.3C560.1,164.1,559.5,164.1,559.1,164.5z"/>
	</g>
</g>
<g>
	<g id="c40_rss">
		<path fill="#FFFFFF" d="M30.8,260.8c-4.4,0-7.9,3.6-7.9,7.9c0,4.4,3.6,7.9,7.9,7.9s7.9-3.6,7.9-7.9
			C38.7,264.3,35.2,260.8,30.8,260.8z"/>
		<path fill="#FFFFFF" d="M23.7,240.6c-0.5,0-0.8,0.4-0.8,0.8v10.1c0,0.5,0.4,0.8,0.8,0.8c12.9,0,23.4,10.5,23.4,23.4
			c0,0.5,0.4,0.8,0.8,0.8H58h0c0.5,0,0.8-0.4,0.8-0.8l0-0.3C58.7,256.3,43,240.6,23.7,240.6z"/>
		<path fill="#FFFFFF" d="M76.3,275.5c-0.1-28.9-23.7-52.3-52.6-52.3c-0.5,0-0.8,0.4-0.8,0.8v10.4c0,0.5,0.4,0.8,0.8,0.8
			c22.4,0,40.6,18.2,40.6,40.6c0,0.5,0.4,0.8,0.8,0.8h10.4h0c0.5,0,0.8-0.4,0.8-0.8L76.3,275.5z"/>
	</g>
	<g id="Capa_1_3_">
	</g>
</g>
<g>
	<g>
		<path fill="#FFFFFF" d="M434.4,167.4v11.3h30v-11.3v-7.5h-30V167.4z M438.1,163.6h22.5v3.8h-22.5V163.6z M438.1,171.2h22.5v3.8
			h-22.5V171.2z"/>
		<polygon fill="#FFFFFF" points="464.4,133.6 464.4,122.3 434.4,122.3 434.4,133.6 434.4,141.1 464.4,141.1 		"/>
		<path fill="#FFFFFF" d="M471.9,133.6h-3.8v7.5v3.8h-37.6v-3.8v-7.5h-3.8c-3.8,0-7.5,3.8-7.5,7.5v18.8c0,3.8,3.8,7.5,7.5,7.5h3.8
			v-7.5v-3.8h37.6v3.8v7.5h3.8c3.8,0,7.5-3.8,7.5-7.5v-18.8C479.4,137.4,475.7,133.6,471.9,133.6z"/>
	</g>
</g>
<g>
	<path id="LinkedIn" fill="#FFFFFF" d="M275.6,155.8v18.9h-10.9V157c0-4.4-1.6-7.4-5.5-7.4c-3,0-4.8,2-5.6,4
		c-0.3,0.7-0.4,1.7-0.4,2.7v18.4h-10.9c0,0,0.1-29.8,0-32.9h10.9v4.7c0,0-0.1,0.1-0.1,0.1h0.1v-0.1c1.5-2.2,4.1-5.4,9.9-5.4
		C270.2,140.9,275.6,145.6,275.6,155.8z M230.8,125.8c-3.7,0-6.2,2.5-6.2,5.7c0,3.2,2.4,5.7,6.1,5.7h0.1c3.8,0,6.2-2.5,6.2-5.7
		C236.8,128.3,234.5,125.8,230.8,125.8z M225.2,174.6h10.9v-32.9h-10.9V174.6z"/>
</g>
<g>
	<path fill="#FFFFFF" d="M130.4,124h39.1c3.7,0,6.7,2.7,6.7,6.7v39.1c0,4-3,6.7-6.7,6.7h-39.1c-3.7,0-6.7-2.7-6.7-6.7v-39.1
		C123.6,126.7,126.7,124,130.4,124L130.4,124z M161.9,129.8c-1.3,0-2.4,1.1-2.4,2.4v5.7c0,1.3,1.1,2.4,2.4,2.4h5.9
		c1.3,0,2.4-1.1,2.4-2.4v-5.7c0-1.3-1.1-2.4-2.4-2.4H161.9L161.9,129.8z M170.2,146.2h-4.6c0.4,1.4,0.7,2.9,0.7,4.5
		c0,8.7-7.3,15.8-16.3,15.8c-9,0-16.3-7.1-16.3-15.8c0-1.6,0.2-3.1,0.7-4.5h-4.8v22.2c0,1.1,0.9,2.1,2.1,2.1h36.6
		c1.1,0,2.1-0.9,2.1-2.1L170.2,146.2L170.2,146.2z M149.9,139.9c-5.8,0-10.6,4.6-10.6,10.2s4.7,10.2,10.6,10.2
		c5.8,0,10.6-4.6,10.6-10.2S155.8,139.9,149.9,139.9z"/>
</g>
<g>
	<path fill="#FFFFFF" d="M279.8,66.9c0,1.3-0.4,2.5-1,3.6l-18.8-21l18.6-16.3c0.7,1.1,1.2,2.5,1.2,4V66.9L279.8,66.9z M250.1,53.3
		L276,30.7c-1.1-0.6-2.3-0.9-3.5-0.9h-44.6c-1.3,0-2.5,0.4-3.5,0.9L250.1,53.3z M257.3,51.9l-6,5.2c-0.4,0.3-0.8,0.5-1.2,0.5
		c-0.4,0-0.9-0.2-1.2-0.5l-6-5.2l-19,21.3c1.1,0.7,2.5,1.1,3.9,1.1h44.6c1.4,0,2.8-0.4,3.9-1.1L257.3,51.9z M221.5,33.2
		c-0.7,1.1-1.2,2.5-1.2,4v29.7c0,1.3,0.4,2.5,1,3.6l18.8-21L221.5,33.2z"/>
</g>
<g>
	<g>
		<path fill="#FFFFFF" d="M176,269.3l-12.7-12.7c-1.9,2.9-4.4,5.4-7.3,7.3l12.7,12.7c2,2,5.3,2,7.3,0C178,274.6,178,271.3,176,269.3
			z"/>
		<path fill="#FFFFFF" d="M163.7,243.7c0-11.4-9.3-20.7-20.7-20.7c-11.4,0-20.7,9.3-20.7,20.7s9.3,20.7,20.7,20.7
			C154.5,264.4,163.7,255.1,163.7,243.7z M143,259.2c-8.6,0-15.5-7-15.5-15.5s7-15.5,15.5-15.5c8.6,0,15.5,7,15.5,15.5
			S151.6,259.2,143,259.2z"/>
		<path fill="#FFFFFF" d="M131,243.7h3.4c0-4.8,3.9-8.6,8.6-8.6v-3.4C136.4,231.6,131,237,131,243.7z"/>
	</g>
</g>
<g>
	<path fill="#FFFFFF" d="M265.9,257.7c-3,0-5.7,1.4-7.4,3.6l-16.1-8.2c0.2-0.8,0.4-1.6,0.4-2.4c0-0.9-0.2-1.8-0.4-2.7l16-8.2
		c1.7,2.3,4.4,3.8,7.5,3.8c5.2,0,9.5-4.2,9.5-9.5c0-5.2-4.2-9.4-9.5-9.4c-5.2,0-9.4,4.2-9.4,9.4c0,0.9,0.2,1.7,0.4,2.5l-16,8.2
		c-1.7-2.2-4.4-3.6-7.4-3.6c-5.2,0-9.4,4.2-9.4,9.5s4.2,9.5,9.4,9.5c3.1,0,5.8-1.5,7.5-3.8l16,8.2c-0.3,0.8-0.4,1.7-0.4,2.7
		c0,5.2,4.2,9.5,9.4,9.5c5.2,0,9.5-4.2,9.5-9.5C275.4,262,271.2,257.7,265.9,257.7z"/>
</g>
<g>
	<path fill="#FFFFFF" d="M572.7,247.7l-41-23.7c-1.7-1-3.8,0.3-3.8,2.2v47.4c0,1.9,2.1,3.2,3.8,2.2l41-23.7
		C574.4,251.1,574.4,248.7,572.7,247.7z"/>
</g>
<g>
	<g id="messenger">
		<path fill="#FFFFFF" d="M174.5,26.8h-45c-3.1,0-5.6,2.5-5.6,5.6v50.7l11.3-11.3h39.4c3.1,0,5.6-2.5,5.6-5.6V32.5
			C180.2,29.4,177.6,26.8,174.5,26.8z"/>
	</g>
</g>
</svg>
