<?xml version="1.0" encoding="utf-8"?>
<!-- Generator: Adobe Illustrator 18.1.1, SVG Export Plug-In . SVG Version: 6.00 Build 0)  -->
<svg version="1.1" id="Layer_1" xmlns="http://www.w3.org/2000/svg" xmlns:xlink="http://www.w3.org/1999/xlink" x="0px" y="0px"
	 viewBox="-1.2 82 601.2 136" enable-background="new -1.2 82 601.2 136" xml:space="preserve">
<g id="ouro_x5F_botics">
</g>
<g id="ouro_x7C_botics">
	<g id="Ouro">
		<path fill="#BADFBD" d="M6.6,168.7V133c0-30.3,16-33.1,25.5-33.1c9.2,0,25.3,2.3,25.3,33.1v35.7c0,30-16.3,33.6-25.3,33.6
			C22,202.4,6.6,199.1,6.6,168.7z M41.1,174.6v-45.8c0-13-2.9-17-9-17c-6.2,0-9.2,4-9.2,17v46c0,12.5,2.9,16.3,9.2,16.3
			C38.2,190.9,41.1,187.3,41.1,174.6z"/>
		<path fill="#BADFBD" d="M71.6,100.8h15.6v73.9c0,12.5,2.6,16.3,8.7,16.3c6.1,0,9-3.8,9-16.3v-73.9h15.4v69.9
			c0,29.7-15.6,31.9-24.5,31.9s-24.3-2.3-24.3-31.9C71.6,170.6,71.6,100.8,71.6,100.8z"/>
		<path fill="#BADFBD" d="M137.5,100.8h16.8c11.6,0,31,1.4,31,28.8v2.6c0,15.3-4.7,25-13.2,29.1l16.5,40.4h-16.5l-13.7-37.8h-5.9
			v37.8h-15.3V100.8H137.5z M155,152.8c10.9,0,14.7-4.3,14.7-17.9v-8c0-10.4-3.5-14.9-14.7-14.9h-2.3v40.9h2.3V152.8z"/>
		<path fill="#BADFBD" d="M197.5,168.7V133c0-30.3,16-33.1,25.5-33.1c9.2,0,25.3,2.3,25.3,33.1v35.7c0,30-16.3,33.6-25.3,33.6
			C213.1,202.4,197.5,199.1,197.5,168.7z M232,174.6v-45.8c0-13-2.9-17-9-17c-6.2,0-9.2,4-9.2,17v46c0,12.5,2.9,16.3,9.2,16.3
			C229.1,190.9,232,187.3,232,174.6z"/>
	</g>
	<g id="Botics">
		<path fill="#669C5F" d="M285.1,100.6h15.6c13.7,0,31.6,1.7,31.6,22.9v4.9c0,10.8-6.8,18.2-13.5,19.9v0.5
			c10.1,1.9,15.3,9.9,15.3,21.8v5.2c0,22-15.4,25.8-32.6,25.8h-16.1V100.6H285.1z M303.1,143.8c8.3,0,13.7-3.8,13.7-13.2v-4.2
			c0-9.4-3.6-14.7-13.7-14.7h-2.9v32.1H303.1z M304.5,191.1c8.2,0,13.7-4.3,13.7-13.7v-7.8c0-9.5-3.6-14.7-13.7-14.7h-4.3v36.4h4.3
			V191.1z"/>
		<path fill="#669C5F" d="M344.4,168.7V133c0-30.5,15.8-33.3,25.1-33.3c9.2,0,25,2.3,25,33.3v35.9c0,30-16.1,33.8-25,33.8
			C359.7,202.5,344.4,199.2,344.4,168.7z M378.6,174.8v-46.1c0-13-2.9-17-9-17c-6.2,0-9.2,4-9.2,17v46.1c0,12.5,2.9,16.3,9.2,16.3
			C375.6,191.1,378.6,187.3,378.6,174.8z"/>
		<path fill="#669C5F" d="M418.4,112.5h-16.3v-12.1H450v12.1h-16.3v89.1h-15.4v-89.1H418.4z"/>
		<path fill="#669C5F" d="M460.4,100.6h15.4v101.3h-15.4V100.6z"/>
		<path fill="#669C5F" d="M490.2,168.7V133c0-30.5,15.4-33.3,24.6-33.3c16.1,0,21.2,9.7,21.2,21.5c0,4.3-0.3,7.6-1.4,12.1h-12.5
			v-5.2c0-11.1-2.6-16.6-7.3-16.6c-5.5,0-8.7,4-8.7,17v46.3c0,12.5,2.3,16.5,8.5,16.5c4,0,7.5-3.6,7.5-11.8v-9.9h14v9.4
			c0,16.3-7.6,23.8-21.5,23.9C505.1,202.5,490.2,199.2,490.2,168.7z"/>
		<path fill="#669C5F" d="M546.1,169.2h12v4.9c0,10.9,2.4,16.8,9.9,16.8c5.7,0,9-3.3,9-9.4c0-6.2-1.6-10.1-7.1-17.2l-16-19.1
			c-5.5-7.3-8.8-14.4-8.8-22.9c0-13.5,8.5-22.9,23.2-22.9c17.9,0,23.2,11.3,23.2,21.5c0,4.3-0.9,7.6-1.7,12.1H578v-4.9
			c0-10.8-2.9-16.6-9.9-16.6c-5.7,0-8.7,3.5-8.7,8.8c0,5.7,1.9,8.8,4.9,12.7l17.9,21.5c6.6,8.5,10.1,15.8,10.1,24.6
			c0,14.4-9.4,23.4-24.1,23.4c-18.4,0-23.6-10.8-23.6-21.5C544.5,176.9,545,173.4,546.1,169.2z"/>
	</g>
	<g id="Vertical_Divider">
		<rect x="259.2" y="85.8" fill="#BADFBD" width="14.7" height="128.3"/>
		<polygon fill="#669C5F" points="274,214.2 259.2,214.2 274,85.8 274,85.8 		"/>
	</g>
</g>
</svg>
