<?xml version="1.0" encoding="utf-8"?>
<!-- Generator: Adobe Illustrator 18.1.1, SVG Export Plug-In . SVG Version: 6.00 Build 0)  -->
<svg version="1.1" id="Layer_1" xmlns="http://www.w3.org/2000/svg" xmlns:xlink="http://www.w3.org/1999/xlink" x="0px" y="0px"
	 viewBox="0 0 275 275" enable-background="new 0 0 275 275" xml:space="preserve">
<g id="ouro_x5F_botics">
	<g id="Ouro_1_">
		<path fill="#BADFBD" stroke="#FFFFFF" stroke-miterlimit="10" d="M2.6,145.4V130c0-13.2,6.8-14.4,10.9-14.4c4,0,10.8,1,10.8,14.4
			v15.5c0,13-7,14.6-10.8,14.6C9.2,160,2.6,158.6,2.6,145.4z M17.3,148v-20c0-5.6-1.3-7.4-3.9-7.4c-2.7,0-4,1.7-4,7.4v20
			c0,5.4,1.3,7.1,4,7.1C16.1,155.1,17.3,153.4,17.3,148z"/>
		<path fill="#BADFBD" stroke="#FFFFFF" stroke-miterlimit="10" d="M30.4,115.9h6.7V148c0,5.4,1.1,7.1,3.7,7.1s3.9-1.7,3.9-7.1
			v-32.1h6.6v30.3c0,12.9-6.7,13.9-10.5,13.9s-10.4-1-10.4-13.9C30.4,146.2,30.4,115.9,30.4,115.9z"/>
		<path fill="#BADFBD" stroke="#FFFFFF" stroke-miterlimit="10" d="M58.6,115.9h7.2c5,0,13.3,0.6,13.3,12.5v1.1
			c0,6.7-2,10.8-5.7,12.7l7.1,17.5h-7.1l-5.8-16.4h-2.5v16.4h-6.5V115.9z M66.1,138.5c4.7,0,6.3-1.9,6.3-7.8v-3.5
			c0-4.5-1.4-6.5-6.3-6.5h-1v17.8H66.1z"/>
		<path fill="#BADFBD" stroke="#FFFFFF" stroke-miterlimit="10" d="M84.3,145.4V130c0-13.2,6.8-14.4,10.9-14.4c4,0,10.8,1,10.8,14.4
			v15.5c0,13-7,14.6-10.8,14.6C90.9,160,84.3,158.6,84.3,145.4z M99,148v-20c0-5.6-1.3-7.4-3.9-7.4c-2.7,0-4,1.7-4,7.4v20
			c0,5.4,1.3,7.1,4,7.1C97.8,155.1,99,153.4,99,148z"/>
	</g>
	<g id="Botics_1_">
		<path fill="#669C5F" stroke="#FFFFFF" stroke-miterlimit="10" d="M139.9,115.9h6.8c5.9,0,13.7,0.8,13.7,9.9v2.1
			c0,4.7-2.9,7.9-5.9,8.6v0.2c4.4,0.8,6.6,4.3,6.6,9.5v2.3c0,9.5-6.7,11.2-14.1,11.2h-7L139.9,115.9L139.9,115.9z M147.7,134.6
			c3.6,0,5.9-1.7,5.9-5.7v-1.8c0-4.1-1.6-6.4-5.9-6.4h-1.3v13.9H147.7z M148.3,155.1c3.5,0,5.9-1.9,5.9-5.9v-3.4
			c0-4.1-1.6-6.4-5.9-6.4h-1.9v15.8L148.3,155.1L148.3,155.1z"/>
		<path fill="#669C5F" stroke="#FFFFFF" stroke-miterlimit="10" d="M165.5,145.4V130c0-13.2,6.8-14.4,10.9-14.4
			c4,0,10.8,1,10.8,14.4v15.5c0,13-7,14.6-10.8,14.6C172.1,160,165.5,158.6,165.5,145.4z M180.3,148v-20c0-5.6-1.3-7.4-3.9-7.4
			c-2.7,0-4,1.7-4,7.4v20c0,5.4,1.3,7.1,4,7.1C179,155.1,180.3,153.4,180.3,148z"/>
		<path fill="#669C5F" stroke="#FFFFFF" stroke-miterlimit="10" d="M197.6,121.1h-7.1v-5.3h20.7v5.3h-7.1v38.6h-6.7L197.6,121.1
			L197.6,121.1z"/>
		<path fill="#669C5F" stroke="#FFFFFF" stroke-miterlimit="10" d="M215.7,115.9h6.7v43.8h-6.7V115.9z"/>
		<path fill="#669C5F" stroke="#FFFFFF" stroke-miterlimit="10" d="M228.6,145.4V130c0-13.2,6.7-14.4,10.7-14.4c7,0,9.2,4.2,9.2,9.3
			c0,1.9-0.2,3.3-0.6,5.3h-5.4v-2.3c0-4.8-1.1-7.2-3.2-7.2c-2.4,0-3.8,1.7-3.8,7.4v20c0,5.4,1,7.1,3.7,7.1c1.7,0,3.2-1.6,3.2-5.1
			v-4.3h6.1v4.1c0,7.1-3.3,10.3-9.3,10.4C235.1,160,228.6,158.6,228.6,145.4z"/>
		<path fill="#669C5F" stroke="#FFFFFF" stroke-miterlimit="10" d="M252.8,145.6h5.2v2.1c0,4.7,1.1,7.3,4.3,7.3
			c2.5,0,3.9-1.4,3.9-4.1c0-2.7-0.7-4.4-3.1-7.4l-6.9-8.3c-2.4-3.2-3.8-6.2-3.8-9.9c0-5.9,3.7-9.9,10.1-9.9c7.7,0,10.1,4.9,10.1,9.3
			c0,1.9-0.4,3.3-0.8,5.3h-5.1v-2.1c0-4.7-1.3-7.2-4.3-7.2c-2.5,0-3.8,1.5-3.8,3.8c0,2.5,0.8,3.8,2.1,5.5l7.7,9.3
			c2.9,3.7,4.4,6.8,4.4,10.7c0,6.2-4.1,10.1-10.4,10.1c-8,0-10.2-4.7-10.2-9.3C252.1,148.9,252.3,147.4,252.8,145.6z"/>
	</g>
	
		<rect id="Horizontal_Divider" x="105.9" y="156" fill="#BADFBD" stroke="#FFFFFF" stroke-miterlimit="10" width="32.3" height="3.7"/>
	<polygon id="Horizontal_Divider_1_" fill="#669C5F" stroke="#FFFFFF" stroke-miterlimit="10" points="138.2,159.7 105.9,159.7 
		105.9,159.7 138.2,156 	"/>
</g>
<g id="ouro_x7C_botics">
</g>
</svg>
