<?xml version="1.0" encoding="utf-8"?>
<!-- Generator: Adobe Illustrator 18.1.1, SVG Export Plug-In . SVG Version: 6.00 Build 0)  -->
<svg version="1.1" id="图层_1" xmlns="http://www.w3.org/2000/svg" xmlns:xlink="http://www.w3.org/1999/xlink" x="0px" y="0px"
	 viewBox="0 0 519.5 790.8" enable-background="new 0 0 519.5 790.8" xml:space="preserve">
<g>
	<g>
		<path d="M61.4,714.9v75.9H0V586.6h61.4v74.8H93v-74.8h61.3v204.2H93v-75.9H61.4z"/>
	</g>
	<g>
		<path d="M297.4,586.6l56.3,204.2h-68l-9.1-33.5l-52.5-0.4l-9.9,33.9h-61.5l58.1-204.2H297.4z M234.1,712.4h31.7L248,655.5
			L234.1,712.4z"/>
	</g>
	<g>
		<path d="M342.5,790.8l54.3-103.3l-54.1-100.9h67.2l20.1,37.6l19.7-37.6h66.6l-52.6,100.3l55.8,103.8h-67l-21.9-40.5l-21.1,40.5
			H342.5z"/>
	</g>
	<polygon fill="#E94821" points="318.7,0 359.7,16.6 271.4,193.5 212.5,157.3 	"/>
	<polygon fill="#E94821" points="496,151.1 519.7,168.4 447.4,309.9 396.8,277.4 	"/>
	<path d="M42.2,50.8l9-12.3l88.2-31.9l83.3,62.6l-5.5,83.2L516,342.9c0,0,0.3,32-22.1,67.9c-21.4,34.3-64.7,48.6-64.7,48.6
		L227.9,283.1l-71.3-56.9l-72.5,26.6L1.5,190.4l5.4-93.9l9.8-11.8l80,59.8l25-33.5L42.2,50.8z"/>
	<polygon fill="#E94821" points="164.4,122.8 205.2,144.7 180.1,199.5 230.4,285 397.6,429.9 331.9,530 440.1,492.3 214.5,790.9 
		316.3,591 147.1,638.1 207.3,421.9 106.5,220.8 	"/>
	<polygon points="404.3,437.7 231,284.8 226.7,261.8 263.9,301.9 411.4,422.2 	"/>
	<polygon fill="#E94821" points="304.3,154.4 354,185.6 291.3,297.3 254.6,281.2 	"/>
	<polygon fill="#E94821" points="297.4,301.8 339.2,323.9 403.8,235.5 355.7,200 	"/>
</g>
</svg>
