<?xml version="1.0" encoding="utf-8"?>
<!-- Generator: Adobe Illustrator 18.1.1, SVG Export Plug-In . SVG Version: 6.00 Build 0)  -->
<svg version="1.1" id="Ouro" xmlns="http://www.w3.org/2000/svg" xmlns:xlink="http://www.w3.org/1999/xlink" x="0px" y="0px"
	 viewBox="0 0 275 275" enable-background="new 0 0 275 275" xml:space="preserve">
<g id="Ouro_Brand">
	<path fill="#669C5F" d="M137.5,33l19.9-8.2L243,60.2l32,77.3l-8.2,20l-35.5-85.6L137.5,33z"/>
	<path fill="#BADEBC" d="M211.3,63.6l19.9,8.2l35.5,85.6l-32,77.3l-20,8.2l35.4-85.6L211.3,63.6z"/>
	<path fill="#669C5F" d="M242,137.4l8.2,19.9l-35.5,85.6l-77.3,32l-20-8.2l85.6-35.5L242,137.4z"/>
	<path fill="#BADEBC" d="M211.4,211.4l-8.2,19.9l-85.6,35.5l-77.3-32l-8.3-20l85.6,35.4L211.4,211.4z"/>
	<path fill="#669C5F" d="M137.5,242l-19.9,8.2L32,214.8L0,137.5l8.2-20l35.5,85.6L137.5,242z"/>
	<path fill="#BADEBC" d="M63.6,211.3L43.7,203L8.2,117.5l32-77.3l20-8.2l-35.5,85.6L63.6,211.3z"/>
	<path fill="#669C5F" d="M33,137.5l-8.2-19.9L60.2,32l77.3-32l20,8.2L71.9,43.7L33,137.5z"/>
	<path fill="#BADEBC" d="M63.6,63.5l8.2-19.9l85.6-35.5l77.2,32.1l8.2,20l-85.5-35.5L63.6,63.5z"/>
	<g>
		<path fill="#FFFFFF" d="M52.4,148.8v-25.7c0-21.8,11.3-23.8,18.1-23.8c6.5,0,17.9,1.7,17.9,23.8v25.7c0,21.5-11.6,24.2-17.9,24.2
			C63.4,173.1,52.4,170.6,52.4,148.8z M76.9,153.1v-33c0-9.3-2.1-12.2-6.4-12.2c-4.5,0-6.5,2.8-6.5,12.2v33c0,9,2.1,11.6,6.5,11.6
			C74.8,164.7,76.9,162.1,76.9,153.1z"/>
		<path fill="#FFFFFF" d="M98.4,99.9h11.1v53.2c0,9,1.7,11.7,6.1,11.7s6.4-2.8,6.4-11.7V99.9H133v50.2c0,21.3-11,22.9-17.3,22.9
			c-6.3,0-17.2-1.6-17.2-22.9L98.4,99.9L98.4,99.9z"/>
		<path fill="#FFFFFF" d="M145.2,99.9h11.9c8.2,0,22,1,22,20.7v1.8c0,11-3.3,17.9-9.4,21l11.6,29h-11.6l-9.6-27.1H156v27.1h-10.8
			V99.9z M157.7,137.3c7.7,0,10.4-3.1,10.4-12.9v-5.8c0-7.5-2.4-10.8-10.4-10.8H156v29.4L157.7,137.3L157.7,137.3z"/>
		<path fill="#FFFFFF" d="M187.6,148.8v-25.7c0-21.8,11.3-23.8,18.1-23.8c6.5,0,17.9,1.7,17.9,23.8v25.7c0,21.5-11.5,24.2-17.9,24.2
			C198.6,173.1,187.6,170.6,187.6,148.8z M212.1,153.1v-33c0-9.3-2.1-12.2-6.4-12.2c-4.5,0-6.5,2.8-6.5,12.2v33
			c0,9,2.1,11.6,6.5,11.6C210.1,164.7,212.1,162.1,212.1,153.1z"/>
	</g>
</g>
</svg>
